Input #0, mov,mp4,m4a,3gp,3g2,mj2, from '/home/hbattu/projects/huberman-gpt/huberman-audio/mp3/tmph66e5d8x.mp4':
  Metadata:
    major_brand     : dash
    minor_version   : 0
    compatible_brands: iso6mp41
    creation_time   : 2021-02-12T07:17:04.000000Z
  Duration: 01:29:42.87, start: 0.000000, bitrate: 129 kb/s
    Stream #0:0(und): Audio: aac (LC) (mp4a / 0x6134706D), 44100 Hz, stereo, fltp, 0 kb/s (default)
    Metadata:
      creation_time   : 2021-02-12T07:17:04.000000Z
      handler_name    : ISO Media file produced by Google Inc.
Stream mapping:
  Stream #0:0 -> #0:0 (aac (native) -> mp3 (libmp3lame))
Press [q] to stop, [?] for help
[graph_0_in_0_0 @ 0x55b1765f0ac0] tb:1/44100 samplefmt:fltp samplerate:44100 chlayout:0x3
Output #0, mp3, to '../huberman-audio/mp3/LG53Vxum0as.mp3':
  Metadata:
    major_brand     : dash
    minor_version   : 0
    compatible_brands: iso6mp41
    TSSE            : Lavf58.29.100
    Stream #0:0(und): Audio: mp3 (libmp3lame), 44100 Hz, stereo, fltp, delay 1105 (default)
    Metadata:
      creation_time   : 2021-02-12T07:17:04.000000Z
      handler_name    : ISO Media file produced by Google Inc.
      encoder         : Lavc58.54.100 libmp3lame
No more output streams to write to, finishing.
size=   84109kB time=01:29:42.89 bitrate= 128.0kbits/s speed=71.4x    
[AVIOContext @ 0x55b1764e5900] Statistics: 0 seeks, 151 writeouts
video:0kB audio:84108kB subtitle:0kB other streams:0kB global headers:0kB muxing overhead: 0.000402%
Input file #0 (/home/hbattu/projects/huberman-gpt/huberman-audio/mp3/tmph66e5d8x.mp4):
  Input stream #0:0 (audio): 231821 packets read (86125969 bytes); 231821 frames decoded (237384704 samples); 
  Total: 231821 packets (86125969 bytes) demuxed
Output file #0 (../huberman-audio/mp3/LG53Vxum0as.mp3):
  Output stream #0:0 (audio): 206064 frames encoded (237384704 samples); 206065 packets muxed (86126759 bytes); 
  Total: 206065 packets (86126759 bytes) muxed
[AVIOContext @ 0x55b1765091c0] Statistics: 2 seeks, 330 writeouts
[AVIOContext @ 0x55b1764ee880] Statistics: 87116557 bytes read, 0 seeks
